<mxfile host="app.diagrams.net" agent="Mozilla/5.0 (Windows NT 10.0; Win64; x64; rv:133.0) Gecko/20100101 Firefox/133.0" version="25.0.3">
  <diagram name="Page-1" id="iAuyqC9wymLPWFgELTDJ">
    <mxGraphModel dx="1395" dy="784" grid="1" gridSize="10" guides="1" tooltips="1" connect="1" arrows="1" fold="1" page="1" pageScale="1" pageWidth="850" pageHeight="1100" math="0" shadow="0">
      <root>
        <mxCell id="0" />
        <mxCell id="1" parent="0" />
        <mxCell id="V0RjbLDTPT6KQcX2KNsg-3" value="System requirements" style="rounded=1;whiteSpace=wrap;html=1;" vertex="1" parent="1">
          <mxGeometry x="150" y="130" width="140" height="60" as="geometry" />
        </mxCell>
        <mxCell id="V0RjbLDTPT6KQcX2KNsg-4" value="Rules of motion" style="rounded=1;whiteSpace=wrap;html=1;" vertex="1" parent="1">
          <mxGeometry x="150" y="230" width="140" height="60" as="geometry" />
        </mxCell>
        <mxCell id="V0RjbLDTPT6KQcX2KNsg-6" value="Leg stride" style="rounded=1;whiteSpace=wrap;html=1;" vertex="1" parent="1">
          <mxGeometry x="150" y="350" width="140" height="60" as="geometry" />
        </mxCell>
        <mxCell id="V0RjbLDTPT6KQcX2KNsg-7" value="Adjust for camera fov" style="rounded=1;whiteSpace=wrap;html=1;" vertex="1" parent="1">
          <mxGeometry x="150" y="470" width="140" height="60" as="geometry" />
        </mxCell>
      </root>
    </mxGraphModel>
  </diagram>
</mxfile>
